<svg  xmlns="http://www.w3.org/2000/svg">
<path d="M0 3.42105C0 1.53166 1.03934 0 2.32143 0H62.6786C63.9607 0 65 1.53166 65 3.42105C65 5.31045 63.9607 6.84211 62.6786 6.84211H2.32143C1.03934 6.84211 0 5.31045 0 3.42105Z" fill="currentColor"/>
<path d="M0 61.5789C0 59.6896 1.03934 58.1579 2.32143 58.1579H62.6786C63.9607 58.1579 65 59.6896 65 61.5789C65 63.4683 63.9607 65 62.6786 65H2.32143C1.03934 65 0 63.4683 0 61.5789Z" fill="currentColor"/>
<path d="M2.32143 29.0789C1.03934 29.0789 0 30.6106 0 32.5C0 34.3894 1.03934 35.9211 2.32143 35.9211H62.6786C63.9607 35.9211 65 34.3894 65 32.5C65 30.6106 63.9607 29.0789 62.6786 29.0789H2.32143Z" fill="currentColor"/>
</svg>
