<svg  xmlns="http://www.w3.org/2000/svg">
<path fill-rule="evenodd" clip-rule="evenodd" d="M28.482 4.45239C22.4077 -0.215588 13.6786 -1.39521 6.73998 4.52595C-0.999745 11.1307 -2.14396 22.2998 4.00023 30.1963C6.21613 33.0441 10.4593 37.2332 14.4353 40.9814C18.4892 44.803 22.5303 48.4111 24.5217 50.1726C24.5354 50.1846 24.5498 50.1974 24.5649 50.2108C24.7429 50.3686 25.0234 50.6171 25.3014 50.8262C25.6509 51.089 26.2091 51.4586 26.9748 51.6868C27.957 51.9794 29.0096 51.9794 29.9918 51.6868C30.7575 51.4586 31.3157 51.089 31.6652 50.8262C31.9432 50.6171 32.2236 50.3686 32.4016 50.2108C32.4168 50.1974 32.4313 50.1846 32.4449 50.1726C34.4363 48.4111 38.4774 44.803 42.5313 40.9814C46.5073 37.2332 50.7505 33.0441 52.9664 30.1963C59.0746 22.346 58.1256 11.0825 50.1843 4.49036C43.1927 -1.31353 34.5573 -0.222342 28.482 4.45239ZM28.7838 9.46519C29.0061 9.39629 29.2692 9.15073 29.7952 8.6596C34.7113 4.07019 41.908 2.89989 47.5895 7.6162C53.8006 12.7721 54.5553 21.5388 49.7601 27.7015C45.7733 32.8253 33.7078 43.6319 29.7534 47.1296C29.311 47.5209 29.0897 47.7165 28.8317 47.7934C28.6065 47.8605 28.3601 47.8605 28.1349 47.7934C27.8769 47.7165 27.6557 47.5209 27.2132 47.1296C23.2588 43.6319 11.1933 32.8253 7.20648 27.7015C2.41136 21.5388 3.27101 12.8269 9.37707 7.6162C14.9632 2.84921 22.2406 4.06192 27.171 8.66008C27.6974 9.15106 27.9606 9.39656 28.183 9.46534C28.4084 9.53509 28.5585 9.53505 28.7838 9.46519Z" fill="currentColor"/>
</svg>
