<svg width="93" height="93" viewBox="0 0 93 93" fill="none" xmlns="http://www.w3.org/2000/svg">
<circle cx="46.5" cy="46.5" r="46.5" fill="#0078C1"/>
<path d="M37.8671 38.1875C36.9684 38.1875 36.0821 38.3968 35.2783 38.7987L34.4189 39.2284C33.5699 39.6529 33.2257 40.6853 33.6502 41.5343C34.0748 42.3833 35.1072 42.7275 35.9562 42.303L36.8156 41.8733C37.1421 41.71 37.5021 41.625 37.8671 41.625H38.625C39.4885 41.625 40.3401 41.8261 41.1124 42.2122L41.2939 42.303C42.1429 42.7275 43.1753 42.3833 43.5998 41.5343C44.0244 40.6853 43.6802 39.6529 42.8312 39.2284L42.6497 39.1376C41.4001 38.5128 40.0222 38.1875 38.625 38.1875H37.8671Z" fill="white"/>
<path d="M52.375 41.625C51.5116 41.625 50.66 41.8261 49.8876 42.2122L49.7062 42.303C48.8572 42.7275 47.8248 42.3833 47.4002 41.5343C46.9757 40.6853 47.3199 39.6529 48.1689 39.2284L48.3503 39.1376C49.6 38.5128 50.9779 38.1875 52.375 38.1875C53.7722 38.1875 55.1501 38.5128 56.3997 39.1376L56.5812 39.2284C57.4302 39.6529 57.7744 40.6853 57.3498 41.5343C56.9253 42.3833 55.8929 42.7275 55.0439 42.303L54.8624 42.2122C54.0901 41.8261 53.2385 41.625 52.375 41.625Z" fill="white"/>
<path d="M37.98 50.5954C37.2388 50.0024 36.1572 50.1226 35.5642 50.8638C34.9712 51.6051 35.0914 52.6867 35.8326 53.2797L37.9842 55.0009C42.3782 58.5162 48.6219 58.5162 53.0159 55.0009L55.1675 53.2797C55.9087 52.6867 56.0289 51.6051 55.4359 50.8638C54.8429 50.1226 53.7613 50.0024 53.0201 50.5954L50.8685 52.3167C47.7299 54.8276 43.2702 54.8276 40.1316 52.3167L37.98 50.5954Z" fill="white"/>
<path fill-rule="evenodd" clip-rule="evenodd" d="M27.5455 27.875C27.136 27.8749 26.647 27.8747 26.2162 27.9099C25.7171 27.9507 25.0021 28.0553 24.2529 28.437C23.2827 28.9314 22.4939 29.7202 21.9995 30.6904C21.6178 31.4396 21.5132 32.1546 21.4724 32.6537C21.4372 33.0845 21.4374 33.5735 21.4375 33.983V58.7202C21.4374 59.1297 21.4372 59.6187 21.4724 60.0495C21.5132 60.5486 21.6178 61.2636 21.9995 62.0128C22.4939 62.983 23.2827 63.7718 24.2529 64.2662C25.0021 64.6479 25.7171 64.7526 26.2162 64.7933C26.647 64.8285 27.1361 64.8283 27.5455 64.8282L54.2175 64.8282C55.2189 64.8282 55.3247 64.8394 55.4023 64.8527C55.5298 64.8744 55.6544 64.9105 55.7737 64.9602C55.8464 64.9905 55.9419 65.0375 56.7884 65.5724L62.2438 69.02C62.5259 69.1985 62.9082 69.4405 63.2617 69.621C63.618 69.803 64.4796 70.2166 65.5951 70.1309C66.8331 70.0357 67.9695 69.4095 68.7114 68.4138C69.3798 67.5166 69.4904 66.5674 69.5269 66.1689C69.5631 65.7736 69.5628 65.3212 69.5626 64.9874L69.5626 33.983C69.5627 33.5736 69.5629 33.0845 69.5277 32.6537C69.4869 32.1546 69.3823 31.4396 69.0005 30.6904C68.5062 29.7202 67.7174 28.9314 66.7472 28.437C65.998 28.0553 65.283 27.9507 64.7838 27.9099C64.3531 27.8747 63.864 27.8749 63.4546 27.875H27.5455ZM58.6248 62.6665L64.0155 66.0732C64.7035 66.5079 65.0474 66.7253 65.3315 66.7035C65.5792 66.6844 65.8064 66.5592 65.9548 66.3601C66.125 66.1316 66.125 65.7246 66.125 64.9108V34.0625C66.125 33.1 66.125 32.6187 65.9377 32.251C65.7729 31.9276 65.51 31.6647 65.1866 31.4999C64.8189 31.3125 64.3376 31.3125 63.375 31.3125H27.625C26.6625 31.3125 26.1812 31.3125 25.8135 31.4999C25.4901 31.6647 25.2272 31.9276 25.0624 32.251C24.875 32.6187 24.875 33.1 24.875 34.0625V58.6407C24.875 59.6033 24.875 60.0846 25.0624 60.4522C25.2272 60.7756 25.4901 61.0386 25.8135 61.2033C26.1812 61.3907 26.6625 61.3907 27.625 61.3907H54.2175C55.1059 61.3907 55.5501 61.3907 55.9808 61.4642C56.3631 61.5295 56.7369 61.6377 57.0949 61.7867C57.4983 61.9547 57.8738 62.192 58.6248 62.6665Z" fill="white"/>
</svg>
