<svg width="28" height="27" viewBox="0 0 28 27" fill="none" xmlns="http://www.w3.org/2000/svg">
<path fill-rule="evenodd" clip-rule="evenodd" d="M0.149462 10.6251C0 11.1564 0 11.7338 0 12.8886V22.1496C0 23.8297 0 24.6698 0.32698 25.3115C0.614601 25.876 1.07354 26.335 1.63803 26.6226C2.27976 26.9496 3.11984 26.9496 4.8 26.9496H8.06945C8.80523 26.9496 9.17311 26.9496 9.47844 26.8854C10.6426 26.6406 11.5521 25.731 11.7969 24.5669C11.8611 24.2616 11.8611 23.8937 11.8611 23.1579V21.5051C11.8611 20.3238 12.8187 19.3662 14 19.3662C15.1813 19.3662 16.1389 20.3238 16.1389 21.5051V23.1579C16.1389 23.8937 16.1389 24.2616 16.2031 24.5669C16.4479 25.731 17.3574 26.6406 18.5216 26.8854C18.8269 26.9496 19.1948 26.9496 19.9306 26.9496H23.2C24.8802 26.9496 25.7202 26.9496 26.362 26.6226C26.9265 26.335 27.3854 25.876 27.673 25.3115C28 24.6698 28 23.8297 28 22.1496V12.8886C28 11.7338 28 11.1564 27.8505 10.6251C27.7181 10.1545 27.5006 9.71215 27.2087 9.31998C26.8792 8.87725 26.4219 8.52474 25.5072 7.81973L17.9073 1.9614C16.5089 0.883487 15.8097 0.344531 15.0387 0.137211C14.3583 -0.0457368 13.6417 -0.0457368 12.9613 0.137211C12.1903 0.344531 11.4911 0.883487 10.0927 1.9614L2.49275 7.81973C1.57814 8.52474 1.12084 8.87724 0.791298 9.31998C0.499393 9.71215 0.281853 10.1545 0.149462 10.6251ZM26 22.1496V12.8886C26 11.6199 25.9825 11.37 25.9253 11.1667C25.8591 10.9314 25.7503 10.7102 25.6044 10.5142C25.4783 10.3448 25.2911 10.1783 24.2862 9.40375L16.6862 3.54542C15.1428 2.35565 14.8108 2.14698 14.5193 2.06861C14.1792 1.97713 13.8208 1.97713 13.4807 2.06861C13.1892 2.14698 12.8572 2.35565 11.3138 3.54542L3.71377 9.40375C2.70893 10.1783 2.52174 10.3448 2.39565 10.5142C2.2497 10.7102 2.14093 10.9314 2.07473 11.1667C2.01754 11.37 2 11.6199 2 12.8886V22.1496C2 23.0226 2.00156 23.5572 2.03423 23.9571C2.04945 24.1434 2.06857 24.2561 2.08469 24.3246C2.09236 24.3571 2.09879 24.3772 2.10265 24.388C2.10636 24.3984 2.10899 24.4036 2.10899 24.4036C2.20487 24.5917 2.35785 24.7447 2.54601 24.8406C2.54601 24.8406 2.55118 24.8432 2.56158 24.8469C2.57241 24.8508 2.59244 24.8572 2.625 24.8649C2.69345 24.881 2.80617 24.9001 2.99247 24.9153C3.39239 24.948 3.92692 24.9496 4.8 24.9496H8.06945C8.45166 24.9496 8.68552 24.9493 8.86315 24.9428C9.03255 24.9367 9.07322 24.9268 9.06689 24.9282C9.45494 24.8466 9.75811 24.5434 9.83971 24.1553C9.83838 24.1617 9.84827 24.121 9.85439 23.9516C9.86081 23.774 9.86111 23.5401 9.86111 23.1579V21.5051C9.86111 19.2193 11.7142 17.3662 14 17.3662C16.2858 17.3662 18.1389 19.2193 18.1389 21.5051V23.1579C18.1389 23.5401 18.1392 23.774 18.1456 23.9516C18.1517 24.121 18.1616 24.1617 18.1603 24.1553C18.2419 24.5434 18.5451 24.8466 18.9331 24.9282C18.9268 24.9268 18.9674 24.9367 19.1369 24.9428C19.3145 24.9493 19.5483 24.9496 19.9306 24.9496H23.2C24.0731 24.9496 24.6076 24.948 25.0075 24.9153C25.1938 24.9001 25.3065 24.881 25.375 24.8649C25.4076 24.8572 25.4276 24.8508 25.4384 24.8469C25.4451 24.8445 25.4492 24.8428 25.4516 24.8417L25.454 24.8406C25.6422 24.7447 25.7951 24.5917 25.891 24.4036C25.891 24.4036 25.8936 24.3984 25.8973 24.388C25.9012 24.3772 25.9076 24.3571 25.9153 24.3246C25.9314 24.2561 25.9505 24.1434 25.9658 23.9571C25.9984 23.5572 26 23.0226 26 22.1496Z" fill="#0078C1"/>
</svg>
