<svg xmlns="http://www.w3.org/2000/svg">
<path fill-rule="evenodd" clip-rule="evenodd" d="M34.8214 2.32143C34.8214 1.03934 35.8608 0 37.1429 0H44.1071C55.6459 0 65 9.35405 65 20.8929V27.8571C65 38.1139 56.6853 46.4286 46.4286 46.4286H30.1786C19.9219 46.4286 11.6071 38.1139 11.6071 27.8571V26.0837L8.17181 19.2131C7.97519 18.8198 7.57328 18.5714 7.13363 18.5714H2.32143C1.03934 18.5714 0 17.5321 0 16.25C0 14.9679 1.03934 13.9286 2.32143 13.9286H7.13363C9.33186 13.9286 11.3414 15.1705 12.3245 17.1367L15.3633 23.2143H34.8214V2.32143ZM60.3571 23.2143V20.8929C60.3571 11.9182 53.0818 4.64286 44.1071 4.64286H39.4643V23.2143H60.3571ZM16.25 27.8571H60.3571C60.3571 35.5497 54.1211 41.7857 46.4286 41.7857H30.1786C22.486 41.7857 16.25 35.5497 16.25 27.8571Z" fill="currentColor"/>
<path fill-rule="evenodd" clip-rule="evenodd" d="M16.25 56.875C16.25 52.3877 19.8877 48.75 24.375 48.75C28.8623 48.75 32.5 52.3877 32.5 56.875C32.5 61.3623 28.8623 65 24.375 65C19.8877 65 16.25 61.3623 16.25 56.875ZM24.375 53.3929C22.4519 53.3929 20.8929 54.9519 20.8929 56.875C20.8929 58.7981 22.4519 60.3571 24.375 60.3571C26.2981 60.3571 27.8571 58.7981 27.8571 56.875C27.8571 54.9519 26.2981 53.3929 24.375 53.3929Z" fill="currentColor"/>
<path fill-rule="evenodd" clip-rule="evenodd" d="M52.2321 48.75C47.7448 48.75 44.1071 52.3877 44.1071 56.875C44.1071 61.3623 47.7448 65 52.2321 65C56.7195 65 60.3571 61.3623 60.3571 56.875C60.3571 52.3877 56.7195 48.75 52.2321 48.75ZM48.75 56.875C48.75 54.9519 50.309 53.3929 52.2321 53.3929C54.1553 53.3929 55.7143 54.9519 55.7143 56.875C55.7143 58.7981 54.1553 60.3571 52.2321 60.3571C50.309 60.3571 48.75 58.7981 48.75 56.875Z" fill="currentColor"/>
</svg>
