<svg xmlns="http://www.w3.org/2000/svg">
<path fill-rule="evenodd" clip-rule="evenodd" d="M18.0556 16.5509V8.125C18.0556 3.63768 21.6932 0 26.1806 0H38.5755C43.0628 0 46.7005 3.6377 46.7005 8.125V16.5509H56.875C61.3623 16.5509 65 20.1886 65 24.6759V38.8194C65 43.3068 61.3623 46.9444 56.875 46.9444H46.7005V56.875C46.7005 61.3623 43.0628 65 38.5755 65H26.1806C21.6932 65 18.0556 61.3623 18.0556 56.875V46.9444H8.125C3.63768 46.9444 0 43.3068 0 38.8194V24.6759C0 20.1886 3.63769 16.5509 8.125 16.5509H18.0556ZM23.4722 19.2593V8.125C23.4722 6.62923 24.6848 5.41667 26.1806 5.41667H38.5755C40.0712 5.41667 41.2838 6.62923 41.2838 8.125V19.2593C41.2838 20.755 42.4963 21.9676 43.9921 21.9676H56.875C58.3708 21.9676 59.5833 23.1802 59.5833 24.6759V38.8194C59.5833 40.3152 58.3708 41.5278 56.875 41.5278H43.9921C42.4963 41.5278 41.2838 42.7403 41.2838 44.2361V56.875C41.2838 58.3708 40.0712 59.5833 38.5755 59.5833H26.1806C24.6848 59.5833 23.4722 58.3708 23.4722 56.875V44.2361C23.4722 42.7403 22.2597 41.5278 20.7639 41.5278H8.125C6.62923 41.5278 5.41667 40.3152 5.41667 38.8194V24.6759C5.41667 23.1802 6.62923 21.9676 8.125 21.9676H20.7639C22.2597 21.9676 23.4722 20.755 23.4722 19.2593Z" fill="currentColor"/>
</svg>
