<svg xmlns="http://www.w3.org/2000/svg">
<path d="M29.3703 7.28024C34.6899 8.26724 40.3021 11.4363 45.8024 17.8312C46.6782 18.8495 46.6292 20.4472 45.6929 21.3997C44.7566 22.3522 43.2876 22.2989 42.4118 21.2806C37.5939 15.6792 32.9168 13.0792 28.6556 12.2712C33.2103 19.319 39.3819 34.4301 36.3267 52.4638C44.9646 52.8627 51.5105 54.5682 56.0724 56.3054C58.6769 57.2971 60.6292 58.297 61.9507 59.0651C62.6114 59.449 63.1141 59.7749 63.4616 60.0127C63.6354 60.1315 63.7704 60.2284 63.8669 60.2994C63.9151 60.3349 63.9538 60.364 63.9828 60.3862L64.0192 60.4142L64.0321 60.4242L64.0372 60.4281L64.0394 60.4299C64.0404 60.4307 64.0414 60.4314 62.6784 62.4752L64.0414 60.4314C65.0792 61.2501 65.3103 62.8287 64.5576 63.9574C63.8066 65.0835 62.36 65.3363 61.3226 64.5245L61.3198 64.5223L61.3177 64.5207L61.2642 64.4808C61.21 64.4409 61.1186 64.375 60.9896 64.2868C60.7317 64.1103 60.3235 63.8445 59.7624 63.5184C58.6405 62.8663 56.9063 61.9727 54.5381 61.071C49.806 59.2691 42.5205 57.4258 32.5 57.4258C22.4795 57.4258 15.1939 59.2691 10.4619 61.071C8.09372 61.9727 6.35953 62.8663 5.23759 63.5184C4.67651 63.8445 4.26832 64.1103 4.01036 64.2868C3.88138 64.375 3.78995 64.4409 3.73575 64.4808L3.68233 64.5207L3.67877 64.5234L3.67687 64.5249C2.63954 65.3363 1.19327 65.0834 0.442385 63.9574C-0.310343 62.8287 -0.0792042 61.2501 0.958648 60.4314L2.32158 62.4752C0.958648 60.4314 0.95962 60.4307 0.960629 60.4299L0.962833 60.4281L0.967911 60.4242L0.980751 60.4142L1.01718 60.3862C1.04624 60.364 1.08488 60.3349 1.13314 60.2994C1.22964 60.2284 1.36461 60.1315 1.53837 60.0127C1.88591 59.7749 2.38864 59.449 3.04928 59.0651C4.37076 58.297 6.32313 57.2971 8.92758 56.3054C14.001 54.3734 21.5282 52.4807 31.6579 52.3807C31.6578 52.2225 31.6714 52.062 31.6999 51.9009C34.9169 33.661 27.6398 18.6492 23.7556 13.6024C23.744 13.5873 23.7326 13.5721 23.7213 13.5568C21.2177 18.2708 20.3053 24.1672 20.3426 28.6702C20.3546 30.1244 19.3728 31.3507 18.1495 31.4092C16.9262 31.4676 15.9248 30.3361 15.9128 28.8818C15.8764 24.4938 16.6069 18.6678 18.802 13.3763C14.4402 15.168 10.8811 18.3819 8.74941 21.17C7.92972 22.2422 6.46606 22.3886 5.48024 21.4972C4.49442 20.6057 4.35974 19.0139 5.17942 17.9418C8.33634 13.8126 14.1342 8.82703 21.3969 7.3575C21.715 7.29314 22.0352 7.23567 22.3574 7.18538C24.7349 4.15791 27.8772 1.78869 31.9107 0.682378C36.1042 -0.467793 41.1293 -0.218555 47.1056 1.84789C48.2704 2.25063 48.9114 3.71091 48.5374 5.10952C48.1635 6.50813 46.9161 7.31545 45.7513 6.91271C40.2937 5.02562 36.0525 4.91924 32.7809 5.81658C31.5245 6.16118 30.3919 6.65878 29.3703 7.28024Z" fill="currentColor"/>
</svg>
