<svg xmlns="http://www.w3.org/2000/svg">
<path d="M39.3352 0.179409C38.2779 -0.195586 37.1168 0.35753 36.7418 1.41483C36.3668 2.47213 36.92 3.63323 37.9773 4.00822C43.2829 5.88998 46.7812 10.3408 46.7812 15.2969C46.7812 20.2531 43.2829 24.7039 37.9773 26.5857C36.92 26.9607 36.3668 28.1218 36.7418 29.1791C37.1168 30.2363 38.2779 30.7895 39.3352 30.4145C45.9402 28.0719 50.8438 22.2915 50.8438 15.2969C50.8438 8.3024 45.9402 2.522 39.3352 0.179409Z" fill="currentColor"/>
<path d="M46.7812 40.6876C45.6594 40.6876 44.75 41.597 44.75 42.7188C44.75 43.8406 45.6594 44.7501 46.7812 44.7501H48.8125C51.0562 44.7501 52.875 46.5689 52.875 48.8126V54.9063C52.875 56.0281 53.7844 56.9376 54.9062 56.9376C56.0281 56.9376 56.9375 56.0281 56.9375 54.9063V48.8126C56.9375 44.3253 53.2998 40.6876 48.8125 40.6876H46.7812Z" fill="currentColor"/>
<path fill-rule="evenodd" clip-rule="evenodd" d="M21.6676 31.0853C30.2343 31.0853 37.179 24.1406 37.179 15.5739C37.179 7.00724 30.2343 0.0625653 21.6676 0.0625653C13.1009 0.0625653 6.15625 7.00724 6.15625 15.5739C6.15625 24.1406 13.1009 31.0853 21.6676 31.0853ZM21.6676 27.0228C27.9906 27.0228 33.1165 21.897 33.1165 15.5739C33.1165 9.25089 27.9906 4.12507 21.6676 4.12507C15.3446 4.12507 10.2188 9.25089 10.2188 15.5739C10.2188 21.897 15.3446 27.0228 21.6676 27.0228Z" fill="currentColor"/>
<path d="M4.125 48.8126C4.125 46.5689 5.94384 44.7501 8.1875 44.7501H34.5938C36.8374 44.7501 38.6562 46.5689 38.6562 48.8126V54.9063C38.6562 56.0281 39.5657 56.9376 40.6875 56.9376C41.8093 56.9376 42.7188 56.0281 42.7188 54.9063V48.8126C42.7188 44.3253 39.0811 40.6876 34.5938 40.6876H8.1875C3.70019 40.6876 0.0625 44.3253 0.0625 48.8126V54.9063C0.0625 56.0281 0.971922 56.9376 2.09375 56.9376C3.21558 56.9376 4.125 56.0281 4.125 54.9063V48.8126Z" fill="currentColor"/>
</svg>
