<svg xmlns="http://www.w3.org/2000/svg">
<path fill-rule="evenodd" clip-rule="evenodd" d="M0.0625 28.5C0.0625 44.2056 12.7944 56.9375 28.5 56.9375C44.2056 56.9375 56.9375 44.2056 56.9375 28.5C56.9375 12.7944 44.2056 0.0625 28.5 0.0625C12.7944 0.0625 0.0625 12.7944 0.0625 28.5ZM26.4688 30.5312V52.7916C19.7429 52.2367 13.7913 48.9511 9.72516 44.046L9.73813 44.0308C13.756 39.2824 15.4976 34.7063 15.8628 30.5312H26.4688ZM26.4688 26.4688H15.7991C15.729 25.8743 15.6336 25.2911 15.5163 24.7199C14.4221 19.394 11.4496 15.3109 9.90262 13.186L9.82993 13.0861C9.79655 13.0402 9.76161 12.9962 9.72523 12.9539C13.7913 8.04887 19.7429 4.7633 26.4688 4.20843V26.4688ZM11.5369 25.5374C10.7563 21.7376 8.79605 18.64 7.28023 16.4971C5.58655 19.4849 4.50567 22.8657 4.20843 26.4688H11.7015C11.6548 26.1529 11.5995 25.8424 11.5369 25.5374ZM7.31913 40.5713C10.1822 36.9345 11.4463 33.559 11.7809 30.5312H4.20843C4.50794 34.1618 5.6031 37.5667 7.31913 40.5713ZM30.5312 30.5312V52.7916C37.1632 52.2444 43.0424 49.0423 47.1034 44.2505C47.0271 44.1838 46.9548 44.1106 46.8873 44.0308C42.8694 39.2824 41.1278 34.7063 40.7626 30.5312H30.5312ZM44.8446 30.5312C45.1875 33.6344 46.5068 37.1028 49.5231 40.8433C51.3298 37.7729 52.483 34.2718 52.7916 30.5312H44.8446ZM44.924 26.4688C44.9707 26.1529 45.0259 25.8424 45.0886 25.5374C45.9053 21.5621 48.013 18.3553 49.5523 16.2063C51.3422 19.2648 52.4846 22.7483 52.7916 26.4688H44.924ZM47.1033 12.7494C46.9907 12.8477 46.8872 12.9601 46.7955 13.0861L46.7228 13.186C45.1759 15.3109 42.2033 19.394 41.1092 24.7199C40.9919 25.2911 40.8965 25.8743 40.8263 26.4688H30.5312V4.20843C37.1632 4.75556 43.0423 7.95764 47.1033 12.7494Z" fill="currentColor"/>
</svg>
