<svg xmlns="http://www.w3.org/2000/svg">
<path fill-rule="evenodd" clip-rule="evenodd" d="M34.6252 13.5625C34.6252 20.8112 28.749 26.6875 21.5002 26.6875C14.2515 26.6875 8.37523 20.8112 8.37523 13.5625C8.37523 6.31376 14.2515 0.4375 21.5002 0.4375C28.749 0.4375 34.6252 6.31376 34.6252 13.5625ZM31.1877 13.5625C31.1877 18.9128 26.8505 23.25 21.5002 23.25C16.15 23.25 11.8127 18.9128 11.8127 13.5625C11.8127 8.21224 16.15 3.875 21.5002 3.875C26.8505 3.875 31.1877 8.21224 31.1877 13.5625Z" fill="#0078C1"/>
<path d="M4.3125 41.6875C4.3125 39.789 5.85152 38.25 7.75 38.25H21.5H35.25C37.1485 38.25 38.6875 39.789 38.6875 41.6875V46.8438C38.6875 47.793 39.457 48.5625 40.4062 48.5625C41.3555 48.5625 42.125 47.793 42.125 46.8438V41.6875C42.125 37.8905 39.047 34.8125 35.25 34.8125H7.75C3.95304 34.8125 0.875 37.8905 0.875 41.6875V46.8438C0.875 47.793 1.64451 48.5625 2.59375 48.5625C3.54299 48.5625 4.3125 47.793 4.3125 46.8438V41.6875Z" fill="#0078C1"/>
</svg>
